<?xml version="1.0" standalone="no"?>
<!DOCTYPE svg PUBLIC "-//W3C//DTD SVG 20010904//EN"
 "http://www.w3.org/TR/2001/REC-SVG-20010904/DTD/svg10.dtd">
<svg version="1.0" xmlns="http://www.w3.org/2000/svg"
 width="200.000000pt" height="200.000000pt" viewBox="0 0 200.000000 200.000000"
 preserveAspectRatio="xMidYMid meet">

<g transform="translate(0.000000,200.000000) scale(0.100000,-0.100000)"
fill="#000000" stroke="none">
<path d="M683 1272 c-21 -3 -23 -9 -23 -56 0 -153 108 -268 267 -283 l65 -6
-69 70 c-76 76 -113 148 -113 223 0 42 5 39 -90 53 -8 2 -25 1 -37 -1z"/>
<path d="M1265 1272 c-70 -6 -72 -8 -78 -65 -8 -77 -49 -152 -120 -221 l-62
-59 65 5 c158 12 270 130 270 284 0 57 -8 63 -75 56z"/>
<path d="M1162 768 c2 -54 7 -83 16 -86 7 -2 12 5 12 16 0 11 6 25 14 31 12
10 19 6 37 -18 13 -17 26 -31 31 -31 15 0 8 30 -12 50 -19 19 -19 19 2 34 36
26 10 31 -32 7 l-40 -22 0 50 c0 39 -4 51 -15 51 -13 0 -15 -14 -13 -82z"/>
<path d="M720 772 c0 -40 5 -73 12 -80 14 -14 118 -16 118 -3 0 6 -21 11 -47
13 l-48 3 -3 68 c-2 51 -6 67 -17 67 -12 0 -15 -15 -15 -68z"/>
<path d="M878 779 c-22 -13 -24 -62 -2 -83 8 -9 31 -16 49 -16 41 0 65 22 65
60 0 44 -65 67 -112 39z m77 -44 c0 -27 -3 -30 -30 -30 -21 0 -31 5 -33 18 -6
33 6 49 35 45 24 -3 28 -8 28 -33z"/>
<path d="M1028 779 c-22 -13 -24 -62 -2 -83 8 -9 31 -16 49 -16 41 0 65 22 65
60 0 44 -65 67 -112 39z m77 -44 c0 -27 -3 -30 -30 -30 -21 0 -31 5 -33 18 -6
33 6 49 35 45 24 -3 28 -8 28 -33z"/>
<path d="M740 623 c-8 -3 -21 -12 -27 -21 -15 -19 -18 -142 -3 -142 6 0 10 11
10 25 0 23 4 25 44 25 38 0 45 -3 48 -22 2 -12 9 -23 16 -26 20 -6 16 111 -5
136 -19 23 -58 34 -83 25z m64 -39 c16 -41 7 -54 -33 -54 -47 0 -55 9 -41 44
7 20 17 26 39 26 17 0 31 -6 35 -16z"/>
<path d="M892 618 c-6 -6 -12 -20 -12 -30 0 -10 -5 -18 -12 -18 -9 0 -9 -3 0
-12 7 -7 12 -31 12 -55 0 -32 4 -43 15 -43 11 0 15 12 15 44 0 36 4 45 23 51
l22 8 -22 4 c-29 6 -33 46 -5 41 11 -2 20 2 21 7 3 15 -42 18 -57 3z"/>
<path d="M990 600 c0 -10 -8 -23 -17 -29 -17 -9 -17 -10 0 -16 11 -5 17 -18
17 -40 0 -18 7 -38 15 -45 17 -14 47 -10 53 9 3 9 -2 11 -17 6 -19 -6 -21 -2
-21 29 0 25 4 36 15 36 8 0 15 5 15 10 0 6 -7 10 -15 10 -9 0 -15 9 -15 25 0
16 -6 25 -15 25 -8 0 -15 -9 -15 -20z"/>
<path d="M1102 564 c-14 -10 -22 -26 -22 -44 0 -51 64 -78 106 -44 18 15 17
15 -13 10 -35 -6 -63 1 -63 15 0 5 20 9 45 9 41 0 45 2 45 25 0 18 -7 28 -26
35 -35 14 -46 13 -72 -6z m68 -19 c11 -13 7 -15 -24 -15 -35 0 -49 13 -23 23
22 9 34 7 47 -8z"/>
<path d="M1230 520 c0 -33 4 -60 10 -60 6 0 10 12 10 26 0 36 17 64 40 64 11
0 20 5 20 11 0 7 -12 10 -30 7 -16 -3 -30 -1 -30 4 0 4 -4 8 -10 8 -6 0 -10
-27 -10 -60z"/>
</g>
</svg>
